#!OML:ASF E:\I on waltz\AllaLogoMonkeySwing\Project 1\Capture day 1\Session 1\Subject1.ASF
:FULLY-SPECIFIED
:DEGREES
663
root -0.309187 17.8005 3.23195 179.284 526.186 536.973
lowerback 13.1897 -1.71705 -2.67313
upperback 2.66039 -2.43565 3.62807
thorax -4.30992 -1.15447 5.74636
lowerneck -6.24855 -8.89884 -8.04052
upperneck 5.57561 -12.1149 11.6958
head 3.89871 -5.72901 4.12135
rclavicle 1.67973e-014 3.97569e-016
rhumerus -25.5973 -19.0755 -74.8083
rradius 29.0164
rwrist -1.39185
rhand -5.29204 -36.4042
rfingers 7.12502
rthumb 20.5128 -65.3405
lclavicle 1.67973e-014 3.97569e-016
lhumerus -42.8104 28.3658 77.6787
lradius 35.5974
lwrist -6.86832
lhand 1.65833 -10.2143
lfingers 7.12502
lthumb 27.1778 17.8484
rfemur -4.30538 -0.249002 22.1197
rtibia 25.0568
rfoot -17.8448 -1.71454
rtoes 12.6015
lfemur -6.33395 1.58765 -10.2666
ltibia 35.425
lfoot -17.4492 1.23659
ltoes -27.826
664
root -0.247125 17.8323 3.1898 179.491 527.906 536.957
lowerback 12.9602 -1.74257 -2.58546
upperback 2.69292 -2.45496 3.7046
thorax -4.14794 -1.17117 5.76787
lowerneck -6.07869 -8.47363 -7.58021
upperneck 5.3359 -11.5305 11.282
head 3.68755 -5.45902 3.98556
rclavicle 3.25013e-014 -4.77083e-015
rhumerus -25.4402 -18.4058 -74.5943
rradius 30.3116
rwrist -3.17057
rhand -4.97068 -36.7791
rfingers 7.12502
rthumb 20.8216 -65.6819
lclavicle 3.25013e-014 -4.77083e-015
lhumerus -42.0617 27.1218 78.4186
lradius 36.3463
lwrist -6.5116
lhand 1.6699 -10.8463
lfingers 7.12502
lthumb 27.1889 17.2147
rfemur -4.55127 0.418004 21.9118
rtibia 24.5905
rfoot -17.2542 -0.719999
rtoes 12.6331
lfemur -5.49073 -0.103214 -10.4178
ltibia 33.2913
lfoot -17.7652 -0.555135
ltoes -29.1863
665
root -0.18193 17.8599 3.14198 179.793 529.536 537.199
lowerback 12.7926 -1.75771 -2.70935
upperback 2.68005 -2.49342 3.69545
thorax -4.06001 -1.19249 5.82669
lowerneck -6.13867 -8.12025 -7.17261
upperneck 5.30765 -11.0392 10.779
head 3.58936 -5.22656 3.80771
rclavicle -1.65985e-014 -3.97569e-015
rhumerus -25.2795 -17.835 -74.3125
rradius 31.112
rwrist -4.3254
rhand -5.20862 -36.3722
rfingers 7.12502
rthumb 20.593 -65.2999
lclavicle -1.65985e-014 -3.97569e-015
lhumerus -41.4357 26.1207 78.8787
lradius 37.2661
lwrist -6.02789
lhand 1.60647 -11.4248
lfingers 7.12502
lthumb 27.1282 16.6457
rfemur -5.02665 0.743827 21.3226
rtibia 24.4733
rfoot -17.0026 0.359372
rtoes 12.8584
lfemur -4.73389 -1.61502 -10.9685
ltibia 31.0321
lfoot -17.9166 -1.56886
ltoes -29.8137
666
root -0.114824 17.8802 3.09583 180.095 531.029 537.55
lowerback 12.6093 -1.76194 -2.91705
upperback 2.65079 -2.52961 3.63945
thorax -3.97914 -1.21146 5.8827
lowerneck -6.1809 -7.7891 -6.81586
upperneck 5.33806 -10.58 10.2633
head 3.51525 -5.01056 3.62963
rclavicle -1.39149e-015 -1.70955e-014
rhumerus -25.2123 -17.1261 -74.0988
rradius 32.0786
rwrist -4.87943
rhand -5.51569 -36.9107
rfingers 7.12502
rthumb 20.2979 -65.87
lclavicle -1.39149e-015 -1.70955e-014
lhumerus -40.9313 25.0855 79.1806
lradius 38.3903
lwrist -5.33325
lhand 1.32618 -11.5916
lfingers 7.12502
lthumb 26.86 16.5204
rfemur -5.50303 0.906226 20.5983
rtibia 24.4702
rfoot -16.9507 1.29659
rtoes 13.2145
lfemur -3.9216 -2.93406 -11.7116
ltibia 28.7021
lfoot -17.8945 -1.90029
ltoes -28.7852
667
root -0.0473368 17.8909 3.05209 180.336 532.384 537.821
lowerback 12.418 -1.80399 -3.10528
upperback 2.60482 -2.61023 3.62232
thorax -3.90471 -1.25211 5.97564
lowerneck -6.3553 -7.53181 -6.55272
upperneck 5.4839 -10.2204 9.7978
head 3.51754 -4.83767 3.46609
rclavicle 1.28216e-014 1.90833e-014
rhumerus -25.2792 -16.5719 -73.7924
rradius 33.1388
rwrist -5.10246
rhand -5.77218 -37.3687
rfingers 7.12502
rthumb 20.0514 -66.3541
lclavicle 1.28216e-014 1.90833e-014
lhumerus -40.5745 24.1405 79.3017
lradius 39.5075
lwrist -4.50061
lhand 0.738804 -11.3081
lfingers 7.12502
lthumb 26.2978 16.8891
rfemur -5.85803 1.10663 19.9898
rtibia 24.3087
rfoot -16.7289 2.1361
rtoes 13.8192
lfemur -3.02333 -4.03897 -12.3888
ltibia 26.3839
lfoot -17.5866 -1.89958
ltoes -25.5686
668
root 0.0196027 17.8922 3.00853 180.442 533.663 537.935
lowerback 12.3013 -1.87411 -3.21993
upperback 2.5968 -2.7166 3.66168
thorax -3.8282 -1.30697 6.09279
lowerneck -6.39294 -7.22266 -6.30141
upperneck 5.42281 -9.78473 9.37485
head 3.43473 -4.6339 3.33023
rclavicle -1.53064e-014 -7.95139e-016
rhumerus -25.2119 -16.3949 -73.3046
rradius 34.0461
rwrist -6.32252
rhand -5.82 -37.4537
rfingers 7.12502
rthumb 20.0054 -66.4438
lclavicle -1.53064e-014 -7.95139e-016
lhumerus -40.2261 23.3092 79.3132
lradius 40.5289
lwrist -3.64988
lhand -0.224683 -11.0684
lfingers 7.12502
lthumb 25.3751 17.2631
rfemur -6.0434 1.56537 19.5831
rtibia 24.0133
rfoot -16.5628 2.89918
rtoes 13.8358
lfemur -2.10636 -4.30862 -12.8751
ltibia 24.658
lfoot -17.4321 -1.51161
ltoes -25.2308
669
root 0.0855899 17.8883 2.96246 180.523 534.842 538.014
lowerback 12.1832 -1.93792 -3.34609
upperback 2.62643 -2.81544 3.7134
thorax -3.71042 -1.36019 6.22678
lowerneck -6.4603 -6.93599 -6.01872
upperneck 5.29679 -9.37833 8.95836
head 3.34152 -4.4438 3.1882
rclavicle 1.3418e-014 1.27222e-014
rhumerus -25.0362 -16.1263 -72.8966
rradius 34.4491
rwrist -6.66949
rhand -6.70016 -37.0985
rfingers 7.12502
rthumb 19.1592 -66.1748
lclavicle 1.3418e-014 1.27222e-014
lhumerus -39.696 22.5548 79.2871
lradius 41.4074
lwrist -2.89331
lhand -1.48719 -11.0345
lfingers 7.12502
lthumb 24.1652 17.4633
rfemur -6.24408 2.23847 19.2286
rtibia 23.7553
rfoot -16.5362 3.55054
rtoes 13.5796
lfemur -1.28404 -3.86314 -13.2611
ltibia 23.6622
lfoot -17.6794 -1.16896
ltoes -25.5622
670
root 0.152578 17.8798 2.91285 180.686 535.943 538.157
lowerback 12.0132 -1.99514 -3.56508
upperback 2.62312 -2.91595 3.75974
thorax -3.59331 -1.41307 6.40633
lowerneck -6.62 -6.66034 -5.74133
upperneck 5.33583 -8.99038 8.48006
head 3.31456 -4.26001 3.02089
rclavicle 4.27387e-015 -9.54166e-015
rhumerus -24.8856 -16.2539 -72.366
rradius 34.8244
rwrist -6.51883
rhand -7.082 -37.0712
rfingers 7.12502
rthumb 18.792 -66.1835
lclavicle 4.27387e-015 -9.54166e-015
lhumerus -39.0686 21.9126 79.176
lradius 42.1311
lwrist -2.08952
lhand -2.71832 -11.0383
lfingers 7.12502
lthumb 22.9843 17.6114
rfemur -6.64009 2.92308 18.7924
rtibia 23.6817
rfoot -16.4889 4.19503
rtoes 13.8566
lfemur -0.528366 -3.03437 -13.6966
ltibia 22.4411
lfoot -17.7289 -0.538605
ltoes -26.1429
671
root 0.219783 17.8669 2.85494 180.855 536.983 538.253
lowerback 11.9631 -2.03843 -3.73376
upperback 2.55781 -2.99288 3.80106
thorax -3.61261 -1.44863 6.55765
lowerneck -6.93659 -6.3854 -5.51249
upperneck 5.564 -8.61158 8.07652
head 3.37947 -4.0725 2.87525
rclavicle 1.59028e-015 -3.97569e-015
rhumerus -24.8327 -16.7722 -71.7344
rradius 35.1296
rwrist -5.96943
rhand -7.01964 -37.368
rfingers 7.12502
rthumb 18.8519 -66.4745
lclavicle 1.59028e-015 -3.97569e-015
lhumerus -38.409 21.3144 78.9354
lradius 42.6903
lwrist -1.26847
lhand -3.79861 -10.9582
lfingers 7.12502
lthumb 21.9473 17.8168
rfemur -7.24149 3.61659 18.4163
rtibia 23.9131
rfoot -16.5534 4.68122
rtoes 13.9215
lfemur 0.23519 -1.98592 -14.0583
ltibia 20.8546
lfoot -17.6637 0.293029
ltoes -23.3285
672
root 0.28736 17.8546 2.78763 181.019 537.853 538.289
lowerback 12.0823 -2.09523 -3.83112
upperback 2.42919 -3.08046 3.86321
thorax -3.79236 -1.48255 6.70491
lowerneck -7.17337 -6.07351 -5.25365
upperneck 5.7474 -8.18134 7.61004
head 3.41298 -3.8649 2.71254
rclavicle -7.95139e-016 8.34896e-015
rhumerus -24.8894 -17.3799 -71.0137
rradius 35.3264
rwrist -5.47483
rhand -7.23696 -37.5044
rfingers 7.12502
rthumb 18.6429 -66.6311
lclavicle -7.95139e-016 8.34896e-015
lhumerus -37.6852 20.7631 78.6338
lradius 43.0568
lwrist -0.557281
lhand -4.78522 -10.8702
lfingers 7.12502
lthumb 20.9998 18.0129
rfemur -8.00371 4.31237 18.1117
rtibia 24.3937
rfoot -16.6205 4.94971
rtoes 14.0958
lfemur 0.900486 -1.03445 -14.3508
ltibia 19.204
lfoot -17.6586 1.34356
ltoes -24.0285
673
root 0.360616 17.8434 2.7201 181.23 538.591 538.464
lowerback 12.157 -2.18608 -4.04413
upperback 2.29352 -3.2283 3.90217
thorax -3.94071 -1.54571 6.90037
lowerneck -7.28687 -5.73522 -5.02319
upperneck 5.74261 -7.71108 7.19455
head 3.37357 -3.64205 2.57794
rclavicle 1.95803e-014 -3.10104e-014
rhumerus -24.9617 -17.9668 -70.2769
rradius 35.4135
rwrist -5.08302
rhand -7.66712 -37.3763
rfingers 7.12502
rthumb 18.2291 -66.5421
lclavicle 1.95803e-014 -3.10104e-014
lhumerus -36.8674 20.3896 78.2854
lradius 43.2413
lwrist -0.0352625
lhand -5.61579 -11.2863
lfingers 7.12502
lthumb 20.2017 17.6832
rfemur -8.86163 4.93528 17.6009
rtibia 24.9542
rfoot -16.5994 5.2539
rtoes 14.9621
lfemur 1.4077 -0.202105 -14.9023
ltibia 17.7443
lfoot -17.7101 2.37025
ltoes -25.0083
674
root 0.435777 17.8319 2.65285 181.431 539.284 538.653
lowerback 12.2073 -2.27203 -4.26335
upperback 2.20142 -3.37133 3.92567
thorax -4.02988 -1.60912 7.07916
lowerneck -7.62875 -5.40517 -4.86042
upperneck 5.65784 -7.22836 6.63539
head 3.71764 -3.43244 2.67316
rclavicle -2.9122e-014 3.73715e-014
rhumerus -25.0429 -18.6436 -69.544
rradius 35.407
rwrist -4.86594
rhand -8.11421 -37.0776
rfingers 7.12502
rthumb 17.7989 -66.2831
lclavicle -2.9122e-014 3.73715e-014
lhumerus -35.9837 20.1774 77.886
lradius 43.3616
lwrist 0.22591
lhand -6.25584 -12.0201
lfingers 7.12502
lthumb 19.5864 17.0132
rfemur -9.71241 5.52489 17.0551
rtibia 25.4855
rfoot -16.601 5.55533
rtoes 15.8617
lfemur 1.81771 0.494874 -15.4991
ltibia 16.4551
lfoot -17.7286 3.1885
ltoes -25.4404
675
root 0.509389 17.8217 2.58072 181.651 539.855 538.726
lowerback 12.3169 -2.35427 -4.37188
upperback 2.09721 -3.4952 3.98018
thorax -4.17125 -1.66132 7.23015
lowerneck -8.18284 -5.07347 -4.62152
upperneck 6.33971 -6.80518 6.48881
head 3.60554 -3.18984 2.32948
rclavicle 4.67144e-015 -2.62396e-014
rhumerus -25.2057 -19.4055 -68.768
rradius 35.3145
rwrist -4.73608
rhand -8.58279 -36.9423
rfingers 7.12502
rthumb 17.348 -66.1881
lclavicle 4.67144e-015 -2.62396e-014
lhumerus -35.2598 19.9844 77.5106
lradius 43.6874
lwrist 0.406952
lhand -6.72509 -12.2434
lfingers 7.12502
lthumb 19.1352 16.8353
rfemur -10.5353 6.02808 16.6342
rtibia 25.8903
rfoot -16.6275 5.70771
rtoes 15.6665
lfemur 1.94377 0.939692 -15.8798
ltibia 15.4818
lfoot -17.6018 3.56947
ltoes -25.7527
